<svg id="Layer_1" data-name="Layer 1" xmlns="http://www.w3.org/2000/svg" viewBox="0 0 61.12 45.27">
  <title>responsive</title>
  <g>
    <g>
      <rect x="7.03" width="48.61" height="32.4" fill="#213438"/>
      <rect x="9.12" y="2.09" width="44.43" height="26.75" fill="#29bec5"/>
      <polygon points="41.97 2.09 9.12 2.09 9.12 28.84 15.67 28.84 41.97 2.09" fill="#5ec6cb"/>
      <polygon points="35.72 35.33 26.95 35.33 24.96 32.4 37.7 32.4 35.72 35.33" fill="#0b1b1e"/>
      <polygon points="37.62 38.42 25.05 38.42 25.49 35.33 37.18 35.33 37.62 38.42" fill="#213438"/>
    </g>
    <g>
      <g>
        <g>
          <path d="M76.92,37.44H60.65a2.07,2.07,0,0,0-2.07,2.07V62.27a2.07,2.07,0,0,0,2.07,2.07H76.92A2.07,2.07,0,0,0,79,62.27V39.51A2.07,2.07,0,0,0,76.92,37.44Z" transform="translate(-17.88 -19.47)" fill="#213438"/>
          <path d="M69.92,62.76a1.14,1.14,0,1,1-1.14-1.13A1.14,1.14,0,0,1,69.92,62.76Z" transform="translate(-17.88 -19.47)" fill="#fff"/>
          <path d="M74.45,38.53a.4.4,0,1,1-.39-.39A.39.39,0,0,1,74.45,38.53Z" transform="translate(-17.88 -19.47)" fill="#fff"/>
        </g>
        <polygon points="50.86 20.2 41.6 20.2 41.6 41.43 50.86 41.43 60.21 41.43 60.21 20.2 50.86 20.2" fill="#f26536"/>
      </g>
      <polygon points="56.7 20.2 50.86 20.2 41.6 20.2 41.6 38.47 56.7 20.2" fill="#f58a65"/>
    </g>
    <g>
      <g>
        <path d="M29.62,39.55H19.69a1.82,1.82,0,0,0-1.81,1.82V62.92a1.82,1.82,0,0,0,1.81,1.82h9.93a1.83,1.83,0,0,0,1.82-1.82V41.37A1.83,1.83,0,0,0,29.62,39.55Z" transform="translate(-17.88 -19.47)" fill="#213438"/>
        <rect x="4.02" y="21.09" width="5.51" height="0.45" fill="#fff"/>
        <polygon points="6.85 22.82 0.66 22.82 0.66 40.66 6.85 40.66 12.9 40.66 12.9 22.82 6.85 22.82" fill="#f7cb2e"/>
        <path d="M26,63.52H23.35V60.91H26Zm-2.16-.45h1.71V61.36H23.8Z" transform="translate(-17.88 -19.47)" fill="#fff"/>
      </g>
      <polygon points="8.42 22.82 6.85 22.82 0.66 22.82 0.66 31.39 8.42 22.82" fill="#f6d763"/>
    </g>
  </g>
</svg>
